<svg width="15" height="13" viewBox="0 0 15 13" fill="none" xmlns="http://www.w3.org/2000/svg">
<path d="M14 10.4545C14 10.768 13.8755 11.0686 13.6539 11.2902C13.4322 11.5119 13.1316 11.6364 12.8182 11.6364H2.18182C1.86838 11.6364 1.56778 11.5119 1.34615 11.2902C1.12451 11.0686 1 10.768 1 10.4545V3.95455C1 3.64111 1.12451 3.34051 1.34615 3.11887C1.56778 2.89724 1.86838 2.77273 2.18182 2.77273H4.54545L5.72727 1H9.27273L10.4545 2.77273H12.8182C13.1316 2.77273 13.4322 2.89724 13.6539 3.11887C13.8755 3.34051 14 3.64111 14 3.95455V10.4545Z" stroke="#727B87" stroke-width="1.5" stroke-linecap="round" stroke-linejoin="round"/>
<path d="M7.50011 9.27273C8.80551 9.27273 9.86375 8.21449 9.86375 6.90909C9.86375 5.60369 8.80551 4.54545 7.50011 4.54545C6.19471 4.54545 5.13647 5.60369 5.13647 6.90909C5.13647 8.21449 6.19471 9.27273 7.50011 9.27273Z" stroke="#727B87" stroke-width="1.5" stroke-linecap="round" stroke-linejoin="round"/>
</svg>
