<svg width="103" height="50" viewBox="0 0 103 50" fill="none" xmlns="http://www.w3.org/2000/svg">
<path d="M14.4588 19.0833H10.9937V28.5901H14.4588V19.0833ZM9.12614 17.366L8.82705 16.5476L8.33098 15.8461C8.13644 15.6415 7.91516 15.471 7.66713 15.3346L6.62393 14.9619L4.85852 14.8158H0.0437705V28.5901H5.23057C5.92117 28.5901 6.53153 28.517 7.06164 28.3709C7.58688 28.2296 8.03674 28.0079 8.41122 27.7059C8.81002 27.3746 9.10912 26.9581 9.30852 26.4564C9.50305 25.9595 9.60032 25.3724 9.60032 24.6953V24.6734C9.60032 24.2008 9.54926 23.7819 9.44713 23.4165C9.34986 23.0463 9.20396 22.7296 9.00942 22.4665C8.78571 22.1791 8.50606 21.9429 8.17049 21.7577C7.83491 21.5677 7.44584 21.446 7.00327 21.3924C7.37776 21.3096 7.7109 21.1707 8.0027 20.9759C8.28964 20.7907 8.52795 20.5545 8.71762 20.267C8.88297 20.004 9.00942 19.7068 9.09696 19.3755C9.18937 19.0394 9.23557 18.6667 9.23557 18.2575L9.12614 17.366ZM4.69074 17.5341C4.97281 17.6072 5.17951 17.7046 5.31082 17.8264C5.42754 17.9189 5.51265 18.0529 5.56614 18.2283L5.64639 18.8129V18.8348C5.64639 19.1368 5.59532 19.3877 5.49319 19.5875C5.39593 19.7921 5.25002 19.948 5.05549 20.0551L4.48647 20.2305L3.63295 20.267V17.4318C4.05606 17.4318 4.40866 17.4659 4.69074 17.5341ZM3.63295 25.996V22.6273L4.63237 22.7004L5.27434 22.9196C5.48347 23.0414 5.63666 23.2241 5.73393 23.4677C5.84093 23.7064 5.89442 23.9987 5.89442 24.3445V24.3591C5.89442 24.705 5.83849 24.99 5.72664 25.2141C5.61964 25.4431 5.44942 25.6184 5.21598 25.7402C5.05549 25.8425 4.83907 25.9132 4.56672 25.9521L3.63295 25.996ZM29.8588 21.1512C29.8588 20.6397 29.815 20.1964 29.7274 19.8213C29.6496 19.4364 29.5256 19.1149 29.3554 18.8567C29.156 18.5401 28.8812 18.3087 28.531 18.1625C28.1906 18.0066 27.7821 17.9287 27.3055 17.9287L26.3936 18.0164C26.1164 18.0846 25.8781 18.1796 25.6787 18.3014C25.455 18.4232 25.2483 18.5839 25.0586 18.7836L24.5406 19.4998C24.3169 18.9736 24.0008 18.5815 23.5923 18.3233C23.1789 18.0602 22.6682 17.9287 22.0603 17.9287L21.2214 18.031L20.4846 18.3379L19.8499 18.8421C19.67 19.0467 19.5168 19.2781 19.3903 19.5363C19.3903 19.4925 19.3927 19.4486 19.3976 19.4048L19.4268 19.1856V18.1991H16.1367V28.5901H19.5581L19.5873 21.6043L19.6821 21.1512C19.7453 20.9564 19.8426 20.8127 19.9739 20.7201C20.1052 20.6178 20.2682 20.5666 20.4627 20.5666C20.6378 20.5666 20.7885 20.6129 20.915 20.7055C21.0366 20.7932 21.1241 20.9344 21.1776 21.1293L21.2506 21.5239L21.287 28.5901H24.7084V21.9258L24.7595 21.4143L24.9346 20.9759C24.9978 20.8443 25.0951 20.7445 25.2264 20.6763L25.6568 20.5666L26.0361 20.6763C26.1383 20.7445 26.2161 20.8516 26.2696 20.9978L26.3571 21.3704L26.3936 21.8673V28.5901H29.8588V21.1512ZM31.5366 19.7482C31.3567 20.2159 31.2667 20.7639 31.2667 21.3924L34.316 21.407L34.3525 20.8151L34.513 20.3767C34.5762 20.2597 34.6784 20.1672 34.8194 20.099L35.3301 20.0113L35.6802 20.077L35.9501 20.2743L36.1398 20.5666L36.1909 20.9174C36.1909 21.2194 36.0815 21.4801 35.8626 21.6993C35.6292 21.9234 35.2863 22.0963 34.834 22.2181L33.1124 22.7004L32.3026 23C31.9913 23.1802 31.736 23.4092 31.5366 23.6869C31.4491 23.8087 31.3713 23.9402 31.3032 24.0815C31.0746 24.5394 30.9603 25.0923 30.9603 25.7402C30.9603 26.2371 31.0138 26.6756 31.1208 27.0556C31.2229 27.3966 31.3615 27.6889 31.5366 27.9324C31.5658 27.9714 31.595 28.0104 31.6242 28.0494C31.843 28.3124 32.1202 28.5097 32.4558 28.6413C32.5433 28.6754 32.6333 28.707 32.7257 28.7362C32.9981 28.8142 33.302 28.8532 33.6376 28.8532L34.4474 28.7509L35.1696 28.5097C35.3982 28.3782 35.6024 28.2223 35.7824 28.042L36.2346 27.3917L36.3514 28.3124L36.417 28.5682H39.6925L39.4372 27.779L39.3934 27.2675L39.3715 21.6993C39.3715 21.0026 39.3059 20.4059 39.1746 19.909C39.0287 19.4121 38.822 19.0321 38.5545 18.769C38.3551 18.5596 38.0827 18.3939 37.7374 18.2721C37.6304 18.2283 37.5162 18.1918 37.3946 18.1625C37.2049 18.1089 37.0031 18.0675 36.7891 18.0383C36.5897 18.0042 36.3781 17.9823 36.1544 17.9725C35.9599 17.953 35.7556 17.9433 35.5416 17.9433C34.8267 17.9433 34.2042 18.0018 33.6741 18.1187C33.1586 18.2259 32.7452 18.3915 32.4339 18.6156C32.0448 18.8738 31.7506 19.2391 31.5512 19.7117C31.5463 19.7263 31.5415 19.7385 31.5366 19.7482ZM36.0669 23.5846L36.1909 23.453L36.0887 25.6745L35.8845 26.1714L35.5781 26.449L35.1696 26.5148L34.7829 26.449L34.513 26.1933L34.3525 25.8206L34.316 25.3237L34.3817 24.688L34.6078 24.2788L35.9064 23.6869L36.0669 23.5846ZM93.1946 49.0068V46.6246H31.7044C31.719 46.6295 31.7336 46.6368 31.7482 46.6465L16.4796 46.6319C16.6887 46.6368 16.893 46.6417 17.0924 46.6465H13.7439C13.7585 46.6368 13.7731 46.6295 13.7877 46.6246H0V49.0068H93.1946ZM20.9879 46.7708C20.9588 46.7561 20.9296 46.744 20.9004 46.7342C21.8439 46.7683 21.8731 46.7805 20.9879 46.7708Z" fill="#DB3B34"/>
<path d="M86.6736 6.4728C86.3606 5.742 86.0129 5.1156 85.6303 4.5936C85.1087 4.9416 84.5523 5.3766 83.9612 5.8986C82.7789 6.97739 82.0834 8.02139 81.8747 9.03059C81.6661 10.0746 81.6835 11.0316 81.9269 11.9016C82.1703 12.7716 82.5702 13.3806 83.1266 13.7286C84.0655 11.9538 84.7262 9.98759 85.1087 7.82999L84.7436 10.3356C84.5002 11.658 84.3263 12.4932 84.222 12.8412L83.7525 13.9374C84.4828 14.0766 85.1957 13.7808 85.8912 13.05C86.5866 12.3192 87.0561 11.3622 87.2995 10.179C87.5082 9.16979 87.2995 7.93439 86.6736 6.4728Z" fill="#DA3A33"/>
<path d="M76.2934 2.87097L74.52 4.07157C73.3029 5.08077 72.5552 6.08997 72.277 7.09916C71.9293 8.24756 71.9119 9.30896 72.2249 10.2834C72.5031 11.223 72.9899 11.8146 73.6854 12.0582C73.6854 11.5014 73.7202 11.1012 73.7897 10.8576C73.894 10.3008 74.1201 9.46556 74.4678 8.35196C74.6069 7.82996 74.8851 7.02957 75.3024 5.95077C74.6417 8.03876 74.3287 10.092 74.3635 12.1104C75.0242 12.0756 75.6501 11.7102 76.2413 11.0142C76.8672 10.353 77.3019 9.51776 77.5453 8.50856C77.8235 7.53416 77.7018 6.29877 77.1802 4.80237C76.902 4.07157 76.6064 3.42777 76.2934 2.87097Z" fill="#DA3A33"/>
<path d="M67.5303 13.05C67.6347 15.0684 68.1737 16.4952 69.1473 17.3304C69.8776 17.922 70.6426 18.2874 71.4424 18.4266C72.2422 18.5658 72.8334 18.4092 73.2159 17.9568L72.4335 17.487C72.2248 17.3826 71.6858 16.9302 70.8165 16.1298L69.4081 14.7726C70.6948 15.921 72.051 16.8258 73.4767 17.487C73.6506 16.9998 73.6158 16.4256 73.3724 15.7644C73.0942 15.1032 72.6421 14.5116 72.0162 13.9896C71.425 13.4676 70.5035 13.1544 69.2517 13.05C68.6257 13.0152 68.0519 13.0152 67.5303 13.05Z" fill="#DA3A33"/>
<path d="M95.0715 12.006L96.7928 9.55255C96.0785 10.6201 95.5395 11.7163 95.1758 12.8411C96.08 13.0847 96.9493 12.5801 97.7839 11.3274C98.3403 10.4922 98.4272 9.29155 98.0447 7.72556C96.5146 8.03876 95.4714 8.61295 94.915 9.44815C94.4977 10.0746 94.2717 10.701 94.2369 11.3274C94.2369 11.9886 94.4282 12.441 94.8107 12.6845L95.0715 12.006Z" fill="#DA3A33"/>
<path d="M95.6974 25.0559L97.3666 27.5093C96.6219 26.4611 95.77 25.5563 94.8107 24.7949C94.2891 25.5257 94.4456 26.5175 95.2801 27.7703C95.9061 28.5707 97.0189 29.0927 98.6185 29.3363C98.8967 27.7703 98.7402 26.5871 98.149 25.7867C97.6969 25.1603 97.1753 24.7253 96.5842 24.4817C95.993 24.2381 95.5062 24.2555 95.1237 24.5339L95.6974 25.0559Z" fill="#DA3A33"/>
<path d="M99.4009 24.3773L101.279 25.6301C100.453 25.1158 99.6012 24.733 98.7228 24.4817C98.6532 24.7949 98.7402 25.1429 98.9836 25.5257C99.1922 25.9433 99.5226 26.2739 99.9746 26.5175C100.67 26.9699 101.644 27.0221 102.896 26.6741C102.617 25.4561 102.148 24.6209 101.487 24.1685C100.966 23.8205 100.444 23.6465 99.9225 23.6465C99.4356 23.6465 99.0705 23.8205 98.8271 24.1685L99.4009 24.3773Z" fill="#DA3A33"/>
<path d="M92.985 29.9627L92.7764 27.5615L92.8285 26.9352C92.446 26.97 92.1504 27.2135 91.9418 27.6659C91.6984 28.1183 91.5941 28.6403 91.6288 29.2319C91.6984 30.0671 92.22 30.9197 93.1937 31.7897C94.063 30.8153 94.4629 29.9105 94.3934 29.0753C94.3586 28.5533 94.2369 28.1009 94.0282 27.7181C93.7848 27.3005 93.5066 27.0395 93.1937 26.9352C92.9951 27.896 92.9255 28.9052 92.985 29.9627Z" fill="#DA3A33"/>
<path d="M61.417 27.799L63.5039 26.8964L64.0478 26.789C63.9111 26.4689 63.6034 26.271 63.125 26.1953C62.6638 26.0894 62.1697 26.1452 61.6427 26.3628C60.9082 26.6613 60.3123 27.3814 59.8549 28.523C60.9486 28.9945 61.8778 29.0898 62.6424 28.8087C63.7139 28.3435 64.2079 27.7653 64.1244 27.0743C63.2136 27.197 62.3111 27.4386 61.417 27.799Z" fill="#DA3A33"/>
<path d="M61.6674 18.9298L62.2433 18.9503C62.1488 18.5876 61.8817 18.3433 61.4419 18.2174C60.9719 18.0525 60.4673 18.0236 59.9279 18.1305C59.1685 18.3147 58.4581 18.9434 57.7967 20.0168C58.8699 20.679 59.7862 20.918 60.5456 20.7338C61.633 20.4509 62.2225 19.9471 62.3141 19.2223C61.4481 19.1746 60.5615 19.255 59.6544 19.4634L61.6674 18.9298Z" fill="#DA3A33"/>
<path d="M63.5139 7.46458L64.818 8.66518L65.0788 9.08278C65.2874 8.87398 65.3396 8.56078 65.2352 8.14318C65.1657 7.76038 64.9571 7.39498 64.6093 7.04698C64.1225 6.55978 63.3574 6.33358 62.3142 6.36838C62.3142 7.41238 62.5402 8.17798 62.9923 8.66518C63.653 9.32637 64.279 9.53517 64.8701 9.29157C64.5375 8.62603 64.0854 8.01703 63.5139 7.46458Z" fill="#DA3A33"/>
<path d="M101.435 18.0612L99.6617 18.3222L99.1923 18.27C99.227 18.5832 99.4357 18.8268 99.8182 19.0008C100.201 19.2096 100.635 19.2792 101.122 19.2096C101.783 19.14 102.409 18.6876 103 17.8524C102.235 17.1564 101.522 16.8432 100.861 16.9128C99.8877 17.0172 99.3314 17.3826 99.1923 18.009C99.9357 18.133 100.683 18.1504 101.435 18.0612Z" fill="#DA3A33"/>
<path d="M73.6854 3.2886L73.3724 3.70619C73.6854 3.77579 73.9984 3.68879 74.3113 3.44519C74.6591 3.20159 74.9199 2.8362 75.0937 2.349C75.3372 1.7226 75.2155 0.939599 74.7286 0C73.7549 0.417599 73.1638 0.939599 72.9551 1.566C72.6074 2.5056 72.6769 3.1668 73.1638 3.54959C73.4767 3.132 73.7549 2.6274 73.9984 2.0358C74.1375 1.7226 74.2418 1.4616 74.3113 1.2528L73.9984 2.2968C73.9288 2.6796 73.8245 3.0102 73.6854 3.2886Z" fill="#DA3A33"/>
<path d="M84.1698 4.3848L84.0655 3.8628L84.2741 1.7226C84.2046 2.6274 84.2568 3.4974 84.4306 4.3326C85.0218 4.089 85.3521 3.5148 85.4217 2.61C85.4565 1.9488 85.1087 1.218 84.3785 0.417603C83.5787 1.1136 83.1614 1.8096 83.1266 2.5056C83.0918 2.9928 83.1788 3.4104 83.3874 3.7584C83.5613 4.1412 83.8221 4.35 84.1698 4.3848Z" fill="#DA3A33"/>
<path d="M92.0983 5.16777L92.4112 4.75017C92.6199 4.54137 92.8981 4.33257 93.2458 4.12377L94.1325 3.49737C93.4023 4.05417 92.7937 4.66317 92.3069 5.32437C92.8981 5.63757 93.5414 5.49837 94.2369 4.90677C94.7585 4.52397 95.0888 3.79317 95.2279 2.71437C94.1499 2.57517 93.3675 2.71437 92.8807 3.13197C92.4634 3.44517 92.1852 3.79317 92.0461 4.17597C91.907 4.55877 91.9244 4.88937 92.0983 5.16777Z" fill="#DA3A33"/>
<path d="M62.6794 11.6928L64.2443 12.1626C65.2179 12.441 65.7569 12.615 65.8613 12.6846L66.4872 13.1022C66.6263 12.615 66.5046 12.1278 66.1221 11.6406C65.7048 11.1534 65.1136 10.7706 64.3486 10.4922C63.3749 10.1442 62.1404 10.353 60.6451 11.1186C61.3754 12.615 62.2274 13.5372 63.201 13.8852C64.6616 14.3724 65.6874 14.2332 66.2786 13.4676C65.2353 12.7368 64.0356 12.1452 62.6794 11.6928Z" fill="#DA3A33"/>
<path d="M68.6384 22.8597C69.1803 22.1323 69.3889 21.4326 69.2642 20.7604C67.5087 21.133 65.7703 21.7715 64.0488 22.676L67.979 20.4556L69.1023 20.1204C68.7322 19.4649 68.0443 19.0998 67.0385 19.0251C66.0327 18.9505 65.0026 19.2054 63.9481 19.7901C63.0426 20.2462 62.2239 21.1798 61.492 22.5908C61.126 23.2964 60.8506 23.9563 60.6657 24.5706C61.2772 24.7904 61.9805 24.9473 62.7756 25.0412C64.3286 25.2612 65.5579 25.1431 66.4634 24.6869C67.4061 24.1987 68.1311 23.5896 68.6384 22.8597Z" fill="#DA3A33"/>
<path d="M67.2094 27.5783C67.4528 26.8823 67.6615 26.3777 67.8354 26.0645L68.3048 25.4381C67.818 25.2641 67.3137 25.3685 66.7921 25.7513C66.2705 26.0993 65.8532 26.6387 65.5403 27.3695C65.123 28.3439 65.2447 29.5967 65.9054 31.1279C67.4702 30.5363 68.4613 29.7533 68.8786 28.7789C69.122 28.1525 69.2263 27.5435 69.1916 26.9519C69.1568 26.3603 68.9829 25.9253 68.6699 25.6469C67.8354 26.6561 67.1747 27.8219 66.6878 29.1443L67.2094 27.5783Z" fill="#DA3A33"/>
<path d="M61.7405 15.7644C62.5403 17.226 63.4618 18.096 64.505 18.3744C65.131 18.5484 65.7395 18.5832 66.3307 18.4788C66.8871 18.3396 67.3043 18.096 67.5825 17.748C66.435 17.0868 65.1831 16.5822 63.8269 16.2342L65.3918 16.5996C65.9829 16.6692 66.5219 16.8084 67.0088 17.0172L67.6869 17.3304C67.826 16.878 67.6695 16.4082 67.2174 15.921C66.7653 15.4338 66.1568 15.0858 65.3918 14.877C64.3833 14.6334 63.1662 14.9292 61.7405 15.7644Z" fill="#DA3A33"/>
<path d="M98.7228 21.0887C98.2707 21.0887 97.6969 21.1061 97.0015 21.1409C95.5757 21.2105 94.3586 21.3845 93.3502 21.6629C93.524 22.2197 93.9587 22.6721 94.6542 23.0201C95.3497 23.4029 96.1495 23.5943 97.0536 23.5943C98.4446 23.6291 99.9225 22.8635 101.487 21.2975C99.992 19.6271 98.5315 18.7919 97.1058 18.7919C96.0626 18.7919 95.1758 19.0181 94.4456 19.4705C93.7153 19.8881 93.3154 20.4275 93.2458 21.0887L94.2369 20.8799C94.7933 20.8451 95.5583 20.8625 96.532 20.9321L98.7228 21.0887Z" fill="#DA3A33"/>
<path d="M91.0551 9.60474C90.7421 10.0223 90.4292 10.5269 90.1162 11.1185C89.4903 12.3017 89.2469 13.3109 89.386 14.1461C89.5251 15.0161 89.8032 15.7643 90.2205 16.3907C90.6378 17.0171 91.1247 17.3825 91.681 17.4869C91.9007 15.9801 91.8833 14.4141 91.6289 12.7889L92.307 16.4951L92.2548 17.4869C92.8808 17.3825 93.3502 16.9301 93.6632 16.1297C94.0109 15.3641 94.1152 14.4767 93.9761 13.4675C93.7675 12.1451 92.7938 10.8575 91.0551 9.60474Z" fill="#DA3A33"/>
<path d="M95.1236 15.3468C94.8454 15.8688 94.7585 16.356 94.8628 16.8084C96.0576 16.4206 97.2226 15.829 98.3576 15.0336L95.8017 16.9128L95.0193 17.1738C95.3323 17.6262 95.8365 17.835 96.532 17.8002C97.2274 17.8002 97.9055 17.5566 98.5663 17.0694C99.4704 16.443 100.079 15.2772 100.392 13.572C98.6532 13.224 97.3492 13.3458 96.4798 13.9374C95.8886 14.355 95.4366 14.8248 95.1236 15.3468Z" fill="#DA3A33"/>
<path d="M90.6378 3.81058C89.2816 4.54138 88.4644 5.37657 88.1862 6.31617C88.0123 6.94257 87.9776 7.51677 88.0819 8.03877C88.1862 8.56077 88.3948 8.94357 88.7078 9.18717C89.3685 8.17797 89.8554 7.02957 90.1683 5.74197C90.0988 6.26397 89.9945 6.75117 89.8554 7.20357L89.4381 8.71737L89.0729 9.34377C89.525 9.48297 89.9771 9.34377 90.4291 8.92617C90.8812 8.50857 91.1942 7.95177 91.368 7.25577C91.681 6.28137 91.4376 5.13298 90.6378 3.81058Z" fill="#DA3A33"/>
<path d="M71.3381 5.63754L71.5989 6.36834C71.9814 6.12474 72.1901 5.68974 72.2249 5.06334C72.2596 4.47174 72.0858 3.84534 71.7032 3.18414C71.1816 2.34895 70.1906 1.73995 68.7301 1.35715C68.278 2.85355 68.2954 4.03674 68.7822 4.90674C69.0952 5.42874 69.4777 5.84634 69.9298 6.15954C70.3818 6.43794 70.7991 6.54234 71.1816 6.47274C70.9034 5.28954 70.4166 4.14114 69.7211 3.02755L70.5557 4.28034C70.9034 4.83714 71.1642 5.28954 71.3381 5.63754Z" fill="#DA3A33"/>
<path d="M87.5082 4.69801L87.2995 5.27221C87.682 5.30701 88.0298 5.11561 88.3428 4.69801C88.6557 4.28041 88.8296 3.77581 88.8644 3.18421C88.9339 2.38382 88.534 1.51382 87.6647 0.574219C86.691 1.37462 86.1694 2.17502 86.0998 2.97542C85.9955 4.08901 86.2911 4.83721 86.9866 5.22001C87.3343 4.28041 87.5429 3.27122 87.6125 2.19242L87.5082 4.69801Z" fill="#DA3A33"/>
<path d="M92.9328 8.874L92.4634 9.2916C92.7764 9.5004 93.1589 9.5178 93.6109 9.3438C94.0978 9.1698 94.5325 8.8392 94.915 8.352C95.4018 7.7604 95.5583 6.8208 95.3844 5.5332C94.0978 5.6724 93.211 6.0552 92.7242 6.6816C92.0287 7.6212 91.8722 8.4042 92.2547 9.0306C93.0546 8.439 93.7848 7.7082 94.4455 6.8382L93.7153 7.8822C93.3327 8.439 93.0719 8.7696 92.9328 8.874Z" fill="#DA3A33"/>
<path d="M67.6869 6.31618C67.0609 6.17698 66.4872 6.08998 65.9655 6.05518C65.8264 8.10837 66.1916 9.62217 67.0609 10.5966C67.6173 11.223 68.2259 11.658 68.8866 11.9016C69.5473 12.1452 70.1211 12.18 70.6079 12.006C69.9124 10.5792 68.9735 9.22197 67.7912 7.93437L69.2517 9.34377C69.8776 10.005 70.3123 10.527 70.5557 10.9098L71.0773 11.6928C71.5294 11.31 71.6685 10.7184 71.4946 9.91797C71.3555 9.11757 70.973 8.36937 70.3471 7.67337C69.7907 7.04697 68.904 6.59458 67.6869 6.31618Z" fill="#DA3A33"/>
<path d="M79.9969 2.5056L80.7794 4.2282C81.0923 4.95899 81.3183 5.56799 81.4574 6.05519L81.5618 6.94259C82.1182 6.73379 82.4659 6.26399 82.605 5.53319C82.7789 4.76759 82.6919 3.9672 82.3442 3.132C81.9269 1.9488 80.8315 0.9744 79.058 0.208801C78.2235 1.9488 78.0148 3.393 78.4321 4.5414C78.7103 5.30699 79.1102 5.91599 79.6318 6.36839C80.1186 6.85559 80.6055 7.08179 81.0923 7.04699C80.988 5.55059 80.6229 4.0368 79.9969 2.5056Z" fill="#DA3A33"/>
<path d="M78.9181 8.10034C79.0154 10.0051 78.7041 11.7467 77.9843 13.3251C77.357 14.6258 76.9801 15.7706 76.8536 16.7595C76.6931 16.4088 76.1971 15.8559 75.3654 15.1008C74.704 14.4675 74.3125 13.7489 74.1909 12.9451C74.0888 14.543 74.4049 15.8437 75.1393 16.8472C75.1733 16.9008 75.2122 16.9544 75.256 17.008C75.8542 17.8264 76.2773 18.6887 76.5253 19.5948C76.4816 20.4327 76.4937 21.273 76.5618 22.1158C75.2146 20.1526 73.1185 19.5582 70.2735 20.3328C73.4736 20.5667 75.7642 22.335 77.1454 25.638C76.3673 25.331 75.0785 25.2896 73.279 25.5137C71.4747 25.7476 70.0765 25.2848 69.0844 24.1253C69.9209 25.9522 71.516 26.9094 73.8699 26.9971C75.9952 27.1628 77.4007 27.6913 78.0865 28.5828C78.0865 28.6023 78.0962 28.6218 78.1157 28.6413C78.8452 30.736 79.2099 33.4519 79.2099 36.789C79.2002 40.1503 79.0227 42.9466 78.6774 45.1778H83.3608C83.0155 42.9466 82.838 40.1503 82.8283 36.789C82.8283 35.5857 82.8793 34.4628 82.9815 33.4203C83.1468 31.6373 83.8034 29.9834 84.9511 28.4586C86.0795 27.343 87.4898 26.6732 89.1823 26.4491C91.3708 26.0934 93.1168 25.4991 94.4202 24.6661C92.6061 24.9243 91.2006 24.9218 90.2036 24.6588C91.5799 22.7296 92.2681 20.6763 92.2681 18.4987C91.3003 21.1147 89.7392 23.0341 87.5847 24.2569C88.9999 21.7237 89.3477 18.752 88.6279 15.3419C88.3361 13.7197 88.2996 12.0804 88.5184 10.4241C87.6236 12.3873 87.2394 14.6428 87.3658 17.1907C87.2345 19.9285 86.3032 21.9965 84.5718 23.3946C83.1079 24.6174 81.9577 25.9327 81.1212 27.3406C81.0531 26.4491 80.7613 25.4869 80.2458 24.4542C79.5115 22.5445 79.7546 20.7908 80.9753 19.1929C82.1814 17.5999 82.9255 16.0483 83.2076 14.5381C82.6872 15.527 81.8945 16.3966 80.8294 17.1468C79.8908 17.9458 79.2367 18.8543 78.8671 19.8725C78.619 18.4013 78.7674 16.628 79.3121 14.5527C79.8276 12.0731 79.6963 9.9223 78.9181 8.10034Z" fill="#DA3A33"/>
<path d="M15.4391 14.7708C15.4391 14.7283 15.4232 14.6912 15.3914 14.6593C15.3622 14.6275 15.3251 14.6116 15.2801 14.6116H15.2403C15.2138 14.6116 15.2006 14.5983 15.2006 14.5717V12.3026C15.2006 12.2601 15.1847 12.2229 15.1529 12.1911C15.1237 12.1592 15.0866 12.1433 15.0416 12.1433C14.9753 12.1433 13.3852 12.1433 10.2713 12.1433C10.2262 12.1433 10.1878 12.1592 10.156 12.1911C10.1268 12.2203 10.1122 12.2574 10.1122 12.3026V12.4618C10.1122 12.5069 10.1268 12.5454 10.156 12.5772C10.1878 12.6064 10.2262 12.621 10.2713 12.621H11.1061C11.1326 12.621 11.1458 12.6343 11.1458 12.6608V13.9348C11.1458 13.9613 11.1591 13.9746 11.1856 13.9746H14.1272C14.1537 13.9746 14.167 13.9613 14.167 13.9348V12.6608C14.167 12.6343 14.1802 12.621 14.2067 12.621H15.0018C15.0283 12.621 15.0416 12.6343 15.0416 12.6608V14.5717C15.0416 14.5983 15.0283 14.6116 15.0018 14.6116H14.962C14.917 14.6116 14.8786 14.6275 14.8468 14.6593C14.8176 14.6885 14.803 14.7257 14.803 14.7708V15.5272C14.803 15.5537 14.8163 15.567 14.8428 15.567H15.3993C15.4258 15.567 15.4391 15.5537 15.4391 15.5272V14.7708Z" fill="#0976BE"/>
<path d="M11.7956 16.2748C11.7838 16.2663 11.7728 16.2646 11.7626 16.2697C11.4953 16.4273 11.2829 16.6399 11.1255 16.9077C10.9648 17.1839 10.8844 17.483 10.8844 17.8049V18.1099C10.8844 18.1438 10.9013 18.1608 10.9352 18.1608H14.3872C14.4008 18.1608 14.4126 18.1565 14.4228 18.148C14.4329 18.1379 14.438 18.1252 14.438 18.1099V17.8049C14.438 17.4846 14.3568 17.1856 14.1943 16.9077C14.037 16.6399 13.8246 16.4273 13.5572 16.2697C13.5471 16.2646 13.5361 16.2663 13.5242 16.2748C13.2856 16.5171 12.998 16.6382 12.6612 16.6382C12.3228 16.6382 12.0342 16.5171 11.7956 16.2748Z" fill="#0976BE"/>
<path d="M14.1989 14.3249C14.1936 14.3037 14.1803 14.2931 14.1591 14.2931H11.1499C11.1287 14.2931 11.1154 14.3037 11.1101 14.3249C10.9882 14.8265 11.0876 15.279 11.4083 15.6824C11.7289 16.0832 12.145 16.2836 12.6565 16.2836C13.1653 16.2836 13.5801 16.0832 13.9007 15.6824C14.2214 15.279 14.3208 14.8265 14.1989 14.3249Z" fill="#0976BE"/>
<path d="M54.7058 19.909C54.5599 19.4121 54.3532 19.0321 54.0857 18.7691C53.8231 18.4963 53.4365 18.2941 52.9258 18.1626C52.5659 18.0603 52.1525 17.9969 51.6857 17.9726H36.8475C37.3144 17.9969 37.7277 18.0603 38.0876 18.1626C38.5983 18.2941 38.9825 18.4963 39.2403 18.7691C39.5126 19.0321 39.7193 19.4121 39.8603 19.909C39.9965 20.4059 40.0646 21.0027 40.0646 21.6993L40.123 27.779L40.3856 28.5682H55.2238L54.9685 27.779L54.9247 27.2675L54.9028 21.6993C54.9028 21.0027 54.8371 20.4059 54.7058 19.909Z" fill="#DB3B34"/>
<path d="M47.119 23.1242C47.26 23.1242 47.3816 23.0731 47.4837 22.9708C47.581 22.8733 47.6296 22.754 47.6296 22.6127C47.6296 22.4666 47.581 22.3423 47.4837 22.24C47.3816 22.1426 47.26 22.0939 47.119 22.0939C46.9731 22.0939 46.8515 22.1426 46.7542 22.24C46.657 22.3423 46.6083 22.4666 46.6083 22.6127C46.6083 22.754 46.657 22.8733 46.7542 22.9708C46.8515 23.0731 46.9731 23.1242 47.119 23.1242ZM50.6279 27.2894C50.6279 27.2992 50.6279 27.3065 50.6279 27.3113C50.6279 27.4039 50.662 27.4867 50.73 27.5598C50.7981 27.628 50.8832 27.6621 50.9854 27.6621C51.0826 27.6621 51.1677 27.628 51.2407 27.5598C51.3088 27.4867 51.3428 27.4039 51.3428 27.3113V25.3457H50.6279V27.2894ZM47.885 25.1995C47.885 25.2141 47.8874 25.2239 47.8923 25.2287C47.9068 25.2531 47.9239 25.2799 47.9433 25.3091C47.9968 25.353 48.0552 25.3749 48.1184 25.3749C48.1865 25.3749 48.2424 25.353 48.2862 25.3091C48.3397 25.2604 48.3664 25.2044 48.3664 25.1411C48.3664 25.1118 48.3591 25.0875 48.3445 25.068C48.3445 25.0582 48.3421 25.0485 48.3373 25.0388L47.8266 23.4823C47.7974 23.3849 47.7391 23.3264 47.6515 23.3069H46.5135C46.4454 23.3167 46.3919 23.3532 46.353 23.4165L45.8496 25.0388C45.835 25.0485 45.8277 25.0607 45.8277 25.0753C45.8229 25.0948 45.8205 25.1167 45.8205 25.1411C45.8205 25.2044 45.8448 25.2604 45.8934 25.3091C45.942 25.353 46.0004 25.3749 46.0685 25.3749C46.1366 25.3749 46.1925 25.353 46.2363 25.3091C46.2703 25.2702 46.2946 25.2263 46.3092 25.1776L46.4989 24.5346L46.5354 27.3479C46.5305 27.3674 46.5281 27.3844 46.5281 27.399C46.5281 27.4672 46.5524 27.5233 46.601 27.5671C46.6497 27.6207 46.708 27.6475 46.7761 27.6475C46.8393 27.6475 46.8953 27.6207 46.9439 27.5671C46.9974 27.5233 47.0241 27.4672 47.0241 27.399C47.0241 27.3844 47.0217 27.3674 47.0168 27.3479V25.7256C47.0217 25.6867 47.0509 25.6648 47.1044 25.6599C47.1676 25.6599 47.1992 25.6915 47.1992 25.7549V27.3406C47.1895 27.3552 47.1846 27.3747 47.1846 27.399C47.1846 27.4672 47.209 27.5233 47.2576 27.5671C47.3062 27.6207 47.3646 27.6475 47.4327 27.6475C47.5008 27.6475 47.5567 27.6207 47.6005 27.5671C47.6491 27.5233 47.6734 27.4672 47.6734 27.399C47.6734 27.3893 47.6734 27.382 47.6734 27.3771V24.5419L47.885 25.1995ZM49.9422 25.3457H49.2273L49.2345 27.3333C49.2443 27.4258 49.2783 27.5013 49.3367 27.5598C49.4096 27.628 49.4947 27.6621 49.592 27.6621C49.6941 27.6621 49.7793 27.628 49.8473 27.5598C49.9057 27.5013 49.9373 27.4307 49.9422 27.3479V25.3457ZM49.7817 20.7347C49.9276 20.876 50.1027 20.9466 50.3069 20.9466C50.5112 20.9466 50.6838 20.876 50.8249 20.7347C50.9708 20.5837 51.0437 20.4059 51.0437 20.2013C51.0437 20.0016 50.9708 19.8262 50.8249 19.6752C50.6838 19.5339 50.5112 19.4633 50.3069 19.4633C50.1027 19.4633 49.9276 19.5339 49.7817 19.6752C49.6358 19.8262 49.5628 20.0016 49.5628 20.2013C49.5628 20.4059 49.6358 20.5837 49.7817 20.7347ZM44.6022 21.1659C44.4855 21.2292 44.3736 21.2633 44.2666 21.2682H43.0921C42.8781 21.2536 42.7249 21.3412 42.6325 21.5312L41.5455 23.8696C41.5066 23.928 41.4872 23.9914 41.4872 24.0596C41.4872 24.1521 41.5188 24.2325 41.582 24.3007C41.655 24.3787 41.7425 24.4176 41.8446 24.4176C41.9468 24.4176 42.0294 24.3787 42.0927 24.3007C42.1267 24.2715 42.1535 24.2374 42.1729 24.1984L42.6544 23.1535C42.7079 23.1096 42.7395 23.1291 42.7492 23.2119L42.6252 27.2821C42.6204 27.2919 42.6179 27.3016 42.6179 27.3113C42.6179 27.4039 42.652 27.4867 42.72 27.5598C42.793 27.628 42.8781 27.6621 42.9754 27.6621C43.0726 27.6621 43.1529 27.628 43.2161 27.5598C43.2891 27.4867 43.3255 27.4039 43.3255 27.3113L43.3912 25.0388C43.3912 25.0193 43.3912 25.0047 43.3912 24.9949C43.3912 24.9218 43.4082 24.8585 43.4423 24.8049C43.452 24.7806 43.4666 24.7586 43.486 24.7392C43.5638 24.6661 43.649 24.6295 43.7414 24.6295C43.8435 24.6295 43.9286 24.6661 43.9967 24.7392C44.0599 24.8025 44.094 24.8804 44.0988 24.973C44.0988 24.9779 44.0988 24.9852 44.0988 24.9949L44.1791 27.2602C44.1791 27.2748 44.1791 27.2919 44.1791 27.3113C44.1791 27.4039 44.2131 27.4867 44.2812 27.5598C44.3493 27.628 44.4344 27.6621 44.5365 27.6621C44.6338 27.6621 44.7165 27.628 44.7846 27.5598C44.8526 27.4867 44.8867 27.4039 44.8867 27.3113C44.8867 27.3016 44.8867 27.2919 44.8867 27.2821L44.7773 24.4688L44.8648 22.0135C44.8745 21.9063 44.928 21.8162 45.0253 21.7431L46.9366 20.6836C47.0047 20.6592 47.0679 20.6592 47.1263 20.6836L49.3732 21.9258C49.4218 21.9551 49.4315 22.0208 49.4023 22.1231L48.8479 25.1557H51.7149L51.3136 23.1535C51.3623 23.1194 51.4158 23.1413 51.4741 23.2192L51.8754 24.0742C51.8802 24.118 51.8973 24.157 51.9264 24.1911C51.9362 24.2106 51.9483 24.2252 51.9629 24.2349C52.031 24.3032 52.1137 24.3373 52.2109 24.3373C52.3131 24.3373 52.3957 24.3032 52.459 24.2349C52.5319 24.1667 52.5684 24.0815 52.5684 23.9792C52.5684 23.9451 52.5635 23.9134 52.5538 23.8842C52.5538 23.8793 52.5538 23.8745 52.5538 23.8696C52.5441 23.8355 52.5271 23.8063 52.5027 23.7819L51.4523 21.5239C51.355 21.3388 51.1945 21.2536 50.9708 21.2682H49.6504L47.1555 19.9017C47.0874 19.8481 47.0023 19.8481 46.9001 19.9017L44.6022 21.1659ZM43.0046 20.2013C43.0046 20.4059 43.0751 20.5837 43.2161 20.7347C43.3669 20.876 43.5444 20.9466 43.7487 20.9466C43.9578 20.9466 44.1329 20.876 44.2739 20.7347C44.4149 20.5837 44.4855 20.4059 44.4855 20.2013C44.4855 20.0016 44.4149 19.8262 44.2739 19.6752C44.1329 19.5339 43.9578 19.4633 43.7487 19.4633C43.5444 19.4633 43.3669 19.5339 43.2161 19.6752C43.0751 19.8262 43.0046 20.0016 43.0046 20.2013Z" fill="white"/>
</svg>
